<svg width="14" height="9" viewBox="0 0 14 9" fill="none" xmlns="http://www.w3.org/2000/svg">
<path fill-rule="evenodd" clip-rule="evenodd" d="M0.522432 8.82304C0.778949 9.05401 1.17414 9.0333 1.4051 8.77678L7.00222 2.56055L12.5993 8.77678C12.8303 9.0333 13.2255 9.05401 13.482 8.82304C13.7385 8.59207 13.7592 8.19689 13.5283 7.94037L7.57522 1.32884C7.54131 1.26149 7.49455 1.19919 7.43514 1.1457C7.31169 1.03455 7.15614 0.98169 7.00222 0.985341C6.84831 0.98169 6.69275 1.03455 6.56931 1.1457C6.5099 1.19919 6.46314 1.26149 6.42922 1.32884L0.476173 7.94037C0.245204 8.19689 0.265915 8.59207 0.522432 8.82304Z" fill="#C4C8C9"/>
</svg>
