<svg width="36" height="30" viewBox="0 0 36 30" fill="none" xmlns="http://www.w3.org/2000/svg">
<g clip-path="url(#clip0)">
<rect x="10.4229" width="17" height="30" rx="1" stroke="#3F6AD8"/>
<path d="M22.8848 16.2247L21.7227 17.7081C21.153 17.4301 20.6061 17.0473 20.082 16.5596C19.6764 16.9242 19.2458 17.1931 18.79 17.3663C18.3343 17.5394 17.792 17.626 17.1631 17.626C15.9144 17.626 14.9756 17.2751 14.3467 16.5733C13.859 16.031 13.6152 15.4066 13.6152 14.7003C13.6152 14.0577 13.8066 13.4812 14.1895 12.9708C14.5723 12.4558 15.1442 12.0092 15.9053 11.6309C15.5635 11.2253 15.306 10.8402 15.1328 10.4756C14.9596 10.1065 14.873 9.75787 14.873 9.42975C14.873 8.82363 15.1146 8.31093 15.5977 7.89166C16.0853 7.46783 16.778 7.25592 17.6758 7.25592C18.5417 7.25592 19.2184 7.47695 19.7061 7.91901C20.1937 8.36106 20.4375 8.9011 20.4375 9.53912C20.4375 9.94472 20.3167 10.3298 20.0752 10.6944C19.8337 11.059 19.346 11.4714 18.6123 11.9317L20.0068 13.7706C20.1709 13.4789 20.3122 13.0984 20.4307 12.629L22.167 13.0255C21.9938 13.6407 21.8434 14.0919 21.7158 14.379C21.5882 14.6615 21.4515 14.8985 21.3057 15.0899C21.5199 15.2904 21.7956 15.5115 22.1328 15.753C22.4746 15.99 22.7253 16.1472 22.8848 16.2247ZM17.6553 10.7764L18.1748 10.3799C18.5576 10.0837 18.749 9.78977 18.749 9.49811C18.749 9.25201 18.6556 9.04238 18.4688 8.8692C18.2865 8.69602 18.0381 8.60944 17.7236 8.60944C17.4183 8.60944 17.179 8.68691 17.0059 8.84186C16.8327 8.99225 16.7461 9.1677 16.7461 9.36823C16.7461 9.6052 16.8919 9.89231 17.1836 10.2296L17.6553 10.7764ZM16.9033 12.8614C16.4613 13.0847 16.1309 13.3536 15.9121 13.668C15.6934 13.9825 15.584 14.3038 15.584 14.6319C15.584 15.0466 15.7184 15.3861 15.9873 15.6505C16.2607 15.9102 16.6253 16.0401 17.0811 16.0401C17.3818 16.0401 17.6712 15.9809 17.9492 15.8624C18.2272 15.7439 18.5303 15.5479 18.8584 15.2745L16.9033 12.8614Z" fill="#3F6AD8"/>
<path d="M29 15H30.7112H30.8136H33" stroke="#3F6AD8" stroke-width="2" stroke-linecap="square" stroke-linejoin="bevel"/>
<path d="M4.42294 7.67905H6.56197H6.68992H9.42294" stroke="#3F6AD8" stroke-width="2" stroke-linecap="square" stroke-linejoin="bevel"/>
<ellipse cx="33.5" cy="15" rx="2.5" ry="2.58621" fill="white" stroke="#3F6AD8"/>
<path d="M5.42294 15.2785H7.13417H7.23652H9.42294" stroke="#3F6AD8" stroke-width="2" stroke-linecap="square" stroke-linejoin="bevel"/>
<path d="M5.42294 23.9124H7.13417H7.23652H9.42294" stroke="#3F6AD8" stroke-width="2" stroke-linecap="square" stroke-linejoin="bevel"/>
<ellipse cx="4.5" cy="15" rx="2.5" ry="2.58621" fill="white" stroke="#3F6AD8"/>
<ellipse cx="2.5" cy="7.75863" rx="2.5" ry="2.58621" fill="white" stroke="#3F6AD8"/>
<ellipse cx="5.5" cy="24.3103" rx="2.5" ry="2.58621" fill="white" stroke="#3F6AD8"/>
</g>
<defs>
<clipPath id="clip0">
<rect width="36" height="30" fill="white"/>
</clipPath>
</defs>
</svg>
