<svg width="17" height="12" viewBox="0 0 17 12" fill="none" xmlns="http://www.w3.org/2000/svg">
<path fill-rule="evenodd" clip-rule="evenodd" d="M15.9371 0.450274C15.6806 0.219305 15.2854 0.240015 15.0545 0.496533L7.00223 9.43945L1.40511 3.22322C1.17414 2.96671 0.778958 2.94599 0.522442 3.17696C0.265924 3.40793 0.245214 3.80312 0.476183 4.05964L6.42923 10.6712C6.46315 10.7385 6.50991 10.8008 6.56932 10.8543C6.69276 10.9655 6.84832 11.0183 7.00224 11.0147C7.15615 11.0183 7.31171 10.9654 7.43515 10.8543C7.49456 10.8008 7.54131 10.7385 7.57523 10.6712L15.9834 1.33295C16.2144 1.07643 16.1937 0.681243 15.9371 0.450274Z" fill="white"/>
</svg>
