<svg width="30" height="30" viewBox="0 0 30 30" fill="none" xmlns="http://www.w3.org/2000/svg">
<path fill-rule="evenodd" clip-rule="evenodd" d="M22.0004 9.00006H25.0504C25.3071 10.2575 26.4743 11.1164 27.7512 10.9874C29.0282 10.8584 30 9.78346 30 8.50006C30 7.21666 29.0282 6.14174 27.7512 6.01274C26.4743 5.88375 25.3071 6.7426 25.0504 8.00007H22.0004V3.00011H25.0504C25.3071 4.25758 26.4743 5.11643 27.7512 4.98744C29.0282 4.85844 30 3.78352 30 2.50012C30 1.21672 29.0282 0.141795 27.7512 0.012802C26.4743 -0.116191 25.3071 0.742654 25.0504 2.00012H22.0004V1.00013C22.0004 0.723993 21.7765 0.500138 21.5004 0.500138H9.50016C9.22401 0.500138 9.00015 0.723993 9.00015 1.00013V3.50411C5.43659 3.55011 0 4.1166 0 6.00009V23.9999C0 25.8834 5.43659 26.4499 9.00015 26.4959V28.9999C9.00015 29.276 9.22401 29.4999 9.50016 29.4999H21.5004C21.7765 29.4999 22.0004 29.276 22.0004 28.9999V27.9999H25.0504C25.3071 29.2573 26.4743 30.1162 27.7512 29.9872C29.0282 29.8582 30 28.7833 30 27.4999C30 26.2165 29.0282 25.1416 27.7512 25.0126C26.4743 24.8836 25.3071 25.7424 25.0504 26.9999H22.0004V21.9999H25.0504C25.3071 23.2574 26.4743 24.1162 27.7512 23.9873C29.0282 23.8583 30 22.7833 30 21.4999C30 20.2165 29.0282 19.1416 27.7512 19.0126C26.4743 18.8836 25.3071 19.7425 25.0504 20.9999H22.0004V15.5H25.0504C25.3071 16.7575 26.4743 17.6163 27.7512 17.4873C29.0282 17.3583 30 16.2834 30 15C30 13.7166 29.0282 12.6417 27.7512 12.5127C26.4743 12.3837 25.3071 13.2425 25.0504 14.5H22.0004V9.00006ZM27.5005 7.00008C28.3289 7.00008 29.0005 7.67164 29.0005 8.50006C29.0005 9.32848 28.3289 10 27.5005 10C26.672 10 26.0004 9.32848 26.0004 8.50006C26.0004 7.67164 26.672 7.00008 27.5005 7.00008ZM29.0005 2.50012C29.0005 1.6717 28.3289 1.00013 27.5005 1.00013C26.672 1.00013 26.0004 1.6717 26.0004 2.50012C26.0004 3.32854 26.672 4.0001 27.5005 4.0001C28.3289 4.0001 29.0005 3.32854 29.0005 2.50012ZM9.50016 4.5001C14.7728 4.5001 17.8168 5.47109 17.9963 6.00009C17.8213 6.52858 14.7773 7.50007 9.50016 7.50007C4.20907 7.50007 1.16152 6.52208 1.00002 6.00359C1.16802 5.47609 4.21407 4.5001 9.50016 4.5001ZM18.0003 11.9925V7.22907C16.1503 8.20506 12.1417 8.50006 9.50016 8.50006C6.85862 8.50006 2.85005 8.20506 1.00002 7.22857V12C1.14702 12.5175 4.20007 13.5 9.50016 13.5C14.8003 13.5 17.8503 12.519 18.0003 11.9925ZM1.00002 13.229C2.85005 14.205 6.85862 14.5 9.50016 14.5C12.1417 14.5 16.1503 14.205 18.0003 13.229V17.992C17.8503 18.518 14.8003 19.5 9.50016 19.5C4.20007 19.5 1.14702 18.5175 1.00002 18V13.229ZM1.00002 19.229V23.9999C1.14702 24.5174 4.20007 25.4999 9.50016 25.4999C14.8003 25.4999 17.8503 24.5174 18.0003 23.9909V19.2285C16.1503 20.205 12.1412 20.4999 9.50016 20.4999C6.85912 20.4999 2.85005 20.205 1.00002 19.229ZM21.0004 28.4999H10.0002V26.4959C13.5637 26.4499 19.0003 25.8834 19.0003 23.9999V6.00009C19.0003 4.1166 13.5637 3.55011 10.0002 3.50411V1.50013H21.0004V28.4999ZM29.0005 27.4999C29.0005 26.6715 28.3289 25.9999 27.5005 25.9999C26.672 25.9999 26.0004 26.6715 26.0004 27.4999C26.0004 28.3283 26.672 28.9999 27.5005 28.9999C28.3289 28.9999 29.0005 28.3283 29.0005 27.4999ZM27.5005 20C28.3289 20 29.0005 20.6715 29.0005 21.4999C29.0005 22.3284 28.3289 22.9999 27.5005 22.9999C26.672 22.9999 26.0004 22.3284 26.0004 21.4999C26.0004 20.6715 26.672 20 27.5005 20ZM29.0005 15C29.0005 14.1716 28.3289 13.5 27.5005 13.5C26.672 13.5 26.0004 14.1716 26.0004 15C26.0004 15.8284 26.672 16.5 27.5005 16.5C28.3289 16.5 29.0005 15.8284 29.0005 15Z" fill="#3F6AD8"/>
</svg>
