<svg width="25" height="25" viewBox="0 0 25 25" fill="none" xmlns="http://www.w3.org/2000/svg">
<path fill-rule="evenodd" clip-rule="evenodd" d="M8.62266 23.5207L16.1141 16.0299C18.2392 16.2556 20.3667 15.6256 22.0262 14.2792C23.6857 12.9329 24.7405 10.981 24.9575 8.85518C25.1102 7.37993 24.8499 5.89128 24.2057 4.55534L20.3662 8.39449C19.6936 9.09077 18.6976 9.37002 17.7611 9.1249C16.8245 8.87978 16.0931 8.14843 15.848 7.21196C15.6028 6.27549 15.8821 5.27962 16.5785 4.60712L20.409 0.776906C17.7818 -0.470571 14.6856 -0.201354 12.3132 1.48083C9.94084 3.16302 8.66257 5.99563 8.97089 8.88732L1.47941 16.3781C-0.493138 18.3505 -0.493138 21.5483 1.47941 23.5207C3.45197 25.4931 6.65011 25.4931 8.62266 23.5207ZM6.09574 20.9958L14.7926 12.3015L12.6997 10.2087L4.00634 18.903C3.42838 19.4799 3.42758 20.4161 4.00455 20.994C4.58152 21.5719 5.51778 21.5727 6.09574 20.9958Z" fill="black"/>
</svg>
