<svg width="30" height="30" viewBox="0 0 30 30" fill="none" xmlns="http://www.w3.org/2000/svg">
<path fill-rule="evenodd" clip-rule="evenodd" d="M0.878977 21.2109H15.2963L15.9632 21.596C15.9475 21.7659 15.9398 21.9298 15.9398 22.0898C15.9398 22.2498 15.9476 22.4138 15.9632 22.5837L14.6843 23.322C14.4825 23.4385 14.3351 23.6305 14.2748 23.8556C14.2145 24.0808 14.2461 24.3207 14.3626 24.5225L16.1207 27.5672C16.2373 27.769 16.4293 27.9163 16.6544 27.9767C16.8797 28.0371 17.1196 28.0055 17.3215 27.8889L18.6204 27.139C18.8867 27.3231 19.1657 27.4851 19.456 27.6241V29.1211C19.456 29.6065 19.8496 30 20.335 30H23.8512C24.3366 30 24.7302 29.6065 24.7302 29.1211V27.6243C25.0232 27.484 25.3046 27.3203 25.5731 27.1341L26.9338 27.8949C27.3534 28.1295 27.8838 27.9836 28.1242 27.5672L29.8822 24.5226C29.9988 24.3207 30.0304 24.0808 29.9701 23.8557C29.9097 23.6305 29.7624 23.4386 29.5605 23.322L28.2816 22.5838C28.2973 22.4139 28.305 22.2499 28.305 22.0899C28.305 21.9299 28.2973 21.7659 28.2816 21.596L29.5605 20.8577C29.7624 20.7412 29.9097 20.5492 29.9701 20.3241C30.0304 20.0989 29.9988 19.859 29.8822 19.6571L28.1242 16.6125C27.8838 16.1962 27.3537 16.0502 26.9338 16.2848L25.5731 17.0457C25.3047 16.8595 25.0231 16.6957 24.7302 16.5555V15.0586C24.7302 14.5732 24.3366 14.1797 23.8512 14.1797H22.9721V0.878906C22.9721 0.393516 22.5786 0 22.0931 0H0.879036C0.393574 0 0 0.393516 0 0.878906V20.332C-5.86024e-05 20.8174 0.393515 21.2109 0.878977 21.2109ZM23.5559 17.9682C24.0548 18.146 24.5158 18.4137 24.9263 18.7639C25.206 19.0026 25.6049 19.0419 25.9259 18.8624L27.0351 18.2422L27.9202 19.7748L26.8895 20.3698C26.5671 20.5559 26.3969 20.9249 26.4647 21.2909C26.5208 21.5938 26.5469 21.8477 26.5469 22.0898C26.5469 22.332 26.5208 22.5859 26.4647 22.8888C26.397 23.2549 26.5671 23.6238 26.8895 23.81L27.9202 24.4049L27.0351 25.9375L25.9259 25.3173C25.6049 25.1378 25.2061 25.1771 24.9263 25.4158C24.5158 25.766 24.0547 26.0337 23.5559 26.2115C23.2058 26.3363 22.9721 26.6678 22.9721 27.0394V28.2422H21.214V27.0393C21.214 26.6677 20.9802 26.3361 20.6301 26.2114C20.1311 26.0336 19.6701 25.7658 19.2598 25.4158C18.9766 25.1742 18.572 25.1371 18.2497 25.3232L17.2036 25.9271L16.3246 24.4049L17.3552 23.81C17.6776 23.6239 17.8478 23.2549 17.78 22.8888C17.7239 22.5859 17.6979 22.332 17.6979 22.0898C17.6979 21.8477 17.7239 21.5938 17.78 21.2909C17.8478 20.9249 17.6776 20.5559 17.3552 20.3698L16.3246 19.7748L17.2036 18.2525L18.2497 18.8565C18.572 19.0425 18.9767 19.0055 19.2598 18.7639C19.6702 18.4137 20.1313 18.146 20.6301 17.9682C20.9803 17.8434 21.214 17.5119 21.214 17.1403V15.9375H22.9721V17.1403C22.9721 17.5119 23.2058 17.8434 23.5559 17.9682ZM19.4559 15.0586C19.4559 14.5732 19.8495 14.1797 20.335 14.1797H21.214V5.27344H1.75801V19.4531H14.4804L16.1206 16.6124C16.2372 16.4105 16.4292 16.2632 16.6544 16.2029C16.8793 16.1426 17.1195 16.1742 17.3214 16.2908L18.6203 17.0406C18.8865 16.8564 19.1657 16.6944 19.4559 16.5554V15.0586ZM21.214 3.51562H19.4559V1.75781H21.214V3.51562ZM17.6979 3.51562V1.75781H1.75801V3.51562H17.6979Z" fill="#3F6AD8"/>
<path d="M12.8558 9.04224C12.3644 8.89771 11.8342 9.13601 11.6721 9.57496L9.79739 14.6511C9.63528 15.09 9.9025 15.5631 10.3942 15.7078C10.8849 15.852 11.4154 15.615 11.5779 15.1751L13.4526 10.0989C13.6147 9.66003 13.3475 9.18694 12.8558 9.04224Z" fill="#3F6AD8"/>
<path d="M8.64826 14.2397L6.06278 12.3954L8.65559 10.5049C9.03716 10.2266 9.11325 9.70194 8.82549 9.33299C8.53772 8.96404 7.99514 8.89046 7.61352 9.16871L4.09437 11.7347C3.87624 11.8938 3.74863 12.1431 3.75001 12.4073C3.75145 12.6714 3.88178 12.9194 4.1017 13.0762L7.62084 15.5865C8.00858 15.8631 8.54955 15.7786 8.83097 15.4099C9.11469 15.038 9.03289 14.5141 8.64826 14.2397Z" fill="#3F6AD8"/>
<path d="M19.1573 11.7388L15.6574 9.17274C15.274 8.89158 14.7247 8.96092 14.4307 9.32771C14.1367 9.69449 14.2092 10.2197 14.5927 10.5009L17.1769 12.3956L14.6001 14.2437C14.2135 14.5211 14.1351 15.0455 14.4251 15.4152C14.7136 15.7831 15.2616 15.8612 15.65 15.5826L19.15 13.0723C19.369 12.9152 19.4985 12.6691 19.5 12.4073C19.5014 12.1455 19.3747 11.8981 19.1573 11.7388Z" fill="#3F6AD8"/>
<path fill-rule="evenodd" clip-rule="evenodd" d="M22.125 24.75C20.6776 24.75 19.5 23.5724 19.5 22.125C19.5 20.6776 20.6776 19.5 22.125 19.5C23.5724 19.5 24.75 20.6776 24.75 22.125C24.75 23.5724 23.5724 24.75 22.125 24.75ZM22.125 23C22.6075 23 23 22.6075 23 22.125C23 21.6425 22.6075 21.25 22.125 21.25C21.6425 21.25 21.25 21.6425 21.25 22.125C21.25 22.6075 21.6425 23 22.125 23Z" fill="#3F6AD8"/>
</svg>
