<svg width="18" height="18" viewBox="0 0 18 18" fill="none" xmlns="http://www.w3.org/2000/svg">
<path fill-rule="evenodd" clip-rule="evenodd" d="M13.3388 12.5076L17.3042 16.5156C17.5741 16.7904 17.5741 17.2349 17.3061 17.5098C17.1693 17.6462 16.9938 17.7145 16.8145 17.7145C16.6353 17.7145 16.4579 17.6462 16.323 17.5098L12.3576 13.4998C11.0756 14.574 9.43123 15.2192 7.63648 15.2192C3.54771 15.2192 0.233887 11.8681 0.233887 7.73342C0.233887 3.59868 3.54771 0.24762 7.63648 0.24762C11.7253 0.24762 15.0391 3.59868 15.0391 7.73342C15.0391 9.54833 14.401 11.2112 13.3388 12.5076ZM7.63648 13.8156C8.45 13.8156 9.23652 13.6558 9.97678 13.338C10.6939 13.032 11.3359 12.5933 11.8891 12.0338C12.4424 11.4744 12.8761 10.8233 13.1788 10.1C13.493 9.35144 13.6511 8.55607 13.6511 7.73341C13.6511 6.91076 13.493 6.11539 13.1788 5.36681C12.8761 4.64357 12.4424 3.99247 11.8891 3.43298C11.3359 2.8735 10.692 2.43488 9.97678 2.12882C9.23652 1.81106 8.45 1.65121 7.63648 1.65121C6.82297 1.65121 6.03644 1.81106 5.29618 2.12882C4.58099 2.43488 3.93711 2.8735 3.38385 3.43298C2.83058 3.99247 2.39683 4.64357 2.09417 5.36681C1.77995 6.11539 1.62187 6.91076 1.62187 7.73341C1.62187 8.55607 1.77995 9.35144 2.09417 10.1C2.39683 10.8233 2.83058 11.4744 3.38385 12.0338C3.93711 12.5933 4.58099 13.032 5.29618 13.338C6.03644 13.6558 6.82297 13.8156 7.63648 13.8156Z" fill="#C4C8C9"/>
</svg>
