<svg width="14" height="9" viewBox="0 0 14 9" fill="none" xmlns="http://www.w3.org/2000/svg">
<path fill-rule="evenodd" clip-rule="evenodd" d="M0.522448 0.176958C0.778964 -0.0540109 1.17415 -0.0332997 1.40512 0.223218L7.00224 6.43945L12.5994 0.223218C12.8303 -0.0332997 13.2255 -0.0540109 13.482 0.176958C13.7385 0.407927 13.7593 0.803113 13.5283 1.05963L7.57524 7.67116C7.54132 7.73851 7.49456 7.80081 7.43515 7.8543C7.31171 7.96545 7.15615 8.01831 7.00224 8.01466C6.84832 8.01831 6.69277 7.96545 6.56932 7.8543C6.50992 7.80081 6.46316 7.73851 6.42924 7.67116L0.476189 1.05963C0.245219 0.803113 0.26593 0.407927 0.522448 0.176958Z" fill="white"/>
</svg>
